HIERARCHY
ROOT Hips
{
  OFFSET 13.6774 106.653 -34.4427
  CHANNELS 6 Xposition Yposition Zposition Zrotation Xrotation Yrotation
  JOINT ToSpine
  {
    OFFSET -2.69724 7.43032 -0.144315
    CHANNELS 3 Zrotation Xrotation Yrotation
    JOINT Spine
    {
      OFFSET -0.0310711 10.7595 1.96963
      CHANNELS 3 Zrotation Xrotation Yrotation
      JOINT Spine1
      {
        OFFSET 19.9056 3.91189 0.764692
        CHANNELS 3 Zrotation Xrotation Yrotation
        JOINT Neck
        {
          OFFSET 25.9749 7.03908 -0.130764
          CHANNELS 3 Zrotation Xrotation Yrotation
          JOINT Head
          {
            OFFSET 9.52751 0.295786 -0.907742
            CHANNELS 3 Zrotation Xrotation Yrotation
            End Site
            {
              OFFSET 16.4037 0.713936 2.7358
            }
          }
        }
        JOINT LeftShoulder
        {
          OFFSET 17.7449 4.33886 11.7777
          CHANNELS 3 Zrotation Xrotation Yrotation
          JOINT LeftArm
          {
            OFFSET 0.911315 1.27913 9.80584
            CHANNELS 3 Zrotation Xrotation Yrotation
            JOINT LeftForeArm
            {
              OFFSET 28.6126 1.18197 -3.53199
              CHANNELS 3 Zrotation Xrotation Yrotation
              JOINT LeftHand
              {
                OFFSET 27.5088 0.0218783 0.327423
                CHANNELS 3 Zrotation Xrotation Yrotation
                End Site
                {
                  OFFSET 18.6038 -0.000155887 0.382096
                }
              }
            }
          }
        }
        JOINT RightShoulder
        {
          OFFSET 17.1009 2.89543 -12.2328
          CHANNELS 3 Zrotation Xrotation Yrotation
          JOINT RightArm
          {
            OFFSET 1.4228 0.178766 -10.211
            CHANNELS 3 Zrotation Xrotation Yrotation
            JOINT RightForeArm
            {
              OFFSET 28.733 1.87905 2.64907
              CHANNELS 3 Zrotation Xrotation Yrotation
              JOINT RightHand
              {
                OFFSET 27.4588 0.290562 -0.101845
                CHANNELS 3 Zrotation Xrotation Yrotation
                End Site
                {
                  OFFSET 17.8396 -0.255518 -0.000602873
                }
              }
            }
          }
        }
      }
    }
  }
  JOINT LeftUpLeg
  {
    OFFSET -5.61296 -2.22332 -10.2353
    CHANNELS 3 Zrotation Xrotation Yrotation
    JOINT LeftLeg
    {
      OFFSET 2.56703 -44.7417 -7.93097
      CHANNELS 3 Zrotation Xrotation Yrotation
      JOINT LeftFoot
      {
        OFFSET 3.16933 -46.5642 -3.96578
        CHANNELS 3 Zrotation Xrotation Yrotation
        JOINT LeftToeBase
        {
          OFFSET 0.346054 -6.02161 12.8035
          CHANNELS 3 Zrotation Xrotation Yrotation
          End Site
          {
            OFFSET 0.134235 -1.35082 5.13018
          }
        }
      }
    }
  }
  JOINT RightUpLeg
  {
    OFFSET -5.7928 -1.72406 10.6446
    CHANNELS 3 Zrotation Xrotation Yrotation
    JOINT RightLeg
    {
      OFFSET -2.57161 -44.7178 -7.85259
      CHANNELS 3 Zrotation Xrotation Yrotation
      JOINT RightFoot
      {
        OFFSET -3.10148 -46.5936 -4.03391
        CHANNELS 3 Zrotation Xrotation Yrotation
        JOINT RightToeBase
        {
          OFFSET -0.0828122 -6.13587 12.8035
          CHANNELS 3 Zrotation Xrotation Yrotation
          End Site
          {
            OFFSET -0.131328 -1.35082 5.13018
          }
        }
      }
    }
  }
}
MOTION
Frames: 10
Frame Time: 0.03333333333333333
0.0000 93.1000 0.0000 -67.9270 43.4823 168.8087 -71.0047 0.0998 87.7843 141.6424 56.7668 -60.8858 12.7304 21.9152 -10.9961 -137.8857 13.0400 162.8508 -140.4527 50.3135 168.6207 0.0737 0.0670 -6.8614 -114.7160 27.1767 -51.3378 -9.6256 59.0962 14.0461 5.5003 0.5407 4.2799 -0.4698 -0.0260 -5.0951 -87.9345 -13.4270 68.7864 -4.2945 -11.6570 4.4867 -3.2606 -0.3092 -4.4239 -13.0924 17.9183 91.7312 -2.3620 37.8658 -10.6621 -1.7504 7.9782 0.2570 0.8514 22.8748 9.4795 -21.2282 -17.8791 78.0512 141.2642 82.9746 -135.2956 -6.1586 2.6391 -0.1950 -5.7882 41.5931 -9.3842 
0.0000 93.1000 0.0000 -68.4385 45.4595 168.4278 -71.0317 0.1499 87.8481 142.6502 54.8209 -62.9737 14.7131 22.4596 -13.4534 -138.6181 12.9608 164.2926 -140.2344 50.3025 168.9622 0.1162 0.1390 -8.7316 -116.7949 32.9987 -47.2428 -13.7333 64.0053 17.0824 6.7081 0.4708 3.8165 -0.1715 1.4937 -3.2256 -83.2209 -19.8911 64.1297 -5.0414 -15.2515 4.5110 -2.9415 -0.3119 -4.2385 -16.8931 17.9594 95.0688 -3.9280 30.1044 -2.9452 -0.9014 6.9396 -0.0768 1.9663 22.0131 5.2685 -14.9113 -20.7377 73.9756 61.2151 84.7667 -52.2308 -6.0319 -0.6658 -0.0493 -5.7035 34.2487 -6.5429 
0.0000 93.1000 0.0000 -69.4624 47.8854 168.8897 -71.0362 0.1692 87.8900 142.5007 54.8987 -62.9680 16.9233 22.8790 -15.0324 -138.8686 12.4198 165.1185 -140.6957 49.2848 168.8864 0.1248 0.1427 -10.7294 -114.5719 34.5473 -42.1000 -14.0233 58.8457 14.2152 6.4034 0.4752 3.2568 -0.0954 2.1466 -2.2152 -83.2597 -24.1410 57.7220 -4.9985 -19.8892 4.2369 -2.6733 -0.2286 -4.0141 -20.0303 18.8284 96.3541 -4.7686 27.7195 0.6534 -1.1015 7.7678 -0.1951 2.7126 23.8366 5.0927 -11.7989 -20.2363 69.9350 15.4061 77.3356 -4.4585 -6.2224 -2.8557 0.0659 -6.9666 31.0245 -6.0072 
0.0000 93.1000 0.0000 -70.2356 49.6199 169.6098 -71.0246 0.1381 87.9192 142.7991 55.9524 -61.1967 19.2369 21.7994 -14.6026 -141.1297 13.2610 167.4450 -142.4989 50.0600 170.3926 0.2815 -0.6583 -11.7994 -112.9208 36.2178 -37.1583 -13.0154 51.2793 10.7845 6.6397 0.3980 3.5211 -0.2801 1.3358 -0.2578 -84.3856 -25.9336 50.4574 -5.1833 -19.5707 4.4974 -2.1790 -0.3129 -3.7637 -23.2325 18.6657 97.1437 -5.7296 30.9698 -2.6921 -3.1692 8.2443 0.1676 2.7870 24.6578 4.5056 -11.9287 -18.1897 63.8999 6.5968 64.0682 6.4256 -5.9514 -4.3426 0.2057 -8.0544 27.5481 -2.2374 
0.0000 93.1000 0.0000 -73.2354 50.0142 173.7085 -71.0072 0.0930 87.9515 141.6959 57.1105 -59.0125 21.0642 20.3633 -12.9051 -139.0832 13.4860 167.9093 -140.4851 49.8947 171.2581 0.4436 -1.0341 -13.7153 -111.5929 35.5892 -36.2449 -11.3002 42.5211 9.9059 8.5334 0.2623 4.0782 -0.4592 -0.3575 0.9482 -86.3674 -27.9896 41.3778 -5.1139 -18.1792 4.5225 -1.5061 -0.4063 -3.4455 -26.1831 18.0451 100.9916 -2.7171 37.9283 -12.6179 -3.6458 10.8843 0.4467 3.9818 23.6675 3.9281 -16.1053 -15.9122 58.6011 3.2154 49.7395 10.7634 -3.1962 -2.8341 -0.3117 -11.9280 26.1175 7.0428 
0.0000 93.1000 0.0000 -77.2512 48.5905 177.7510 -70.9960 0.0345 87.9607 139.6537 58.2350 -55.2512 23.8238 18.6737 -11.5096 -137.8870 12.3323 168.8645 -140.5812 48.7462 172.4768 0.9292 -0.2505 -17.0573 -113.7328 35.4269 -38.5409 -8.6982 33.9043 8.8810 11.5847 0.0574 5.2462 -0.8192 -2.2636 5.6572 -92.1037 -28.1936 33.6139 -4.1456 -13.9902 3.7909 -0.5117 -0.6859 -3.1819 -30.5937 15.9345 98.5009 -4.2405 48.6764 -12.4914 -2.6044 11.3160 0.5065 2.2226 21.7351 4.8154 -19.2858 -13.0981 59.2769 2.6136 39.9064 8.9075 -1.1513 2.1108 -0.8749 -15.2833 24.7434 12.0389 
0.0000 93.1000 0.0000 -82.2699 46.5910 -178.7747 -71.0083 -0.1326 88.0384 135.5564 58.8786 -52.4474 25.0007 16.2631 -12.3730 -137.8357 13.0914 169.8471 -140.0025 47.8270 171.6153 2.0312 0.2642 -26.3115 -112.7645 34.5876 -49.1724 -7.8476 30.9663 8.0593 14.5259 -0.1926 4.4917 0.3108 -4.2064 11.9198 -99.5738 -28.0220 27.6693 -1.4617 -7.9285 0.4644 -0.2932 -1.2075 -4.1110 -36.3350 10.8626 95.0478 -6.8310 61.8482 -12.0448 6.0901 13.2534 -0.5570 -7.1808 -26.5378 11.1531 -19.5817 -13.4856 61.2576 2.5125 40.0817 6.1372 0.6083 6.6655 -1.4952 -14.7935 21.5368 12.8910 
0.0000 93.1000 0.0000 -82.9624 42.6028 179.2035 -70.9756 0.1546 88.0614 129.6339 58.6851 -48.3111 26.9969 15.8954 -12.4183 -138.6018 13.0558 169.9267 -141.0511 48.5074 173.7286 1.4440 0.7592 -31.7239 -109.2533 35.7661 -69.3875 -7.6937 27.3456 8.4280 11.9986 0.4233 2.8309 0.2141 -6.0172 21.7168 -107.2660 -31.9303 26.5399 -0.0164 0.5963 0.5319 -2.0306 0.1285 -3.4923 -38.2925 3.8132 90.3759 -12.3922 74.2000 -0.8443 12.0957 13.3460 -2.6165 -14.9175 -51.5326 3.5189 -16.0901 -17.1863 64.6309 2.4323 49.8211 1.3497 0.1913 6.1827 -0.2193 -18.6395 21.1700 20.1672 
0.0000 93.1000 0.0000 -80.7974 36.7971 177.0912 -70.9281 0.1073 88.0852 127.5110 57.3409 -44.8247 25.3335 14.2062 -9.4088 -141.6178 13.8735 169.6768 -141.5216 50.1022 173.2002 1.9578 1.2801 -32.7861 -104.4864 40.8627 -88.3923 -6.8533 17.7389 6.0484 8.1610 0.1140 1.6406 0.3214 -7.1044 29.0697 -114.6095 -40.3952 33.3406 -0.8281 6.9360 1.2069 -4.3332 0.0150 -2.5654 -35.6029 -1.9088 86.7393 -61.6183 84.9467 56.3005 17.5576 15.3908 -3.0416 -22.1751 -66.2803 -4.7648 -10.1651 -20.6536 66.9868 5.2080 63.6121 -1.9948 -0.8649 6.0782 0.2101 -22.1391 20.9116 26.9177 
0.0000 93.1000 0.0000 -80.9558 35.8462 -179.7091 -70.9900 -0.0589 87.9055 132.6211 56.7678 -46.5883 24.6575 13.8824 -6.0642 -144.7366 15.8087 171.7673 -143.9855 52.1351 173.5197 2.2276 0.1515 -33.9990 -96.7436 43.9866 -105.1279 -3.7521 11.9091 -9.1539 11.7503 -0.3483 0.2205 0.5769 -5.9354 31.2256 -107.0249 -50.2484 52.9063 -5.2443 7.7330 7.4961 -5.4496 -0.5400 -0.4009 -32.0205 -0.3861 82.8445 -159.8506 74.1440 145.3974 8.5607 7.1121 -1.6478 -14.6914 -53.6376 5.9230 -10.5610 -15.1915 67.5368 9.6471 73.0396 -2.2550 -4.8239 -4.3983 0.0463 -0.3201 31.6063 -18.0419 
